<svg width="183" height="100" viewBox="0 0 183 100" fill="none" xmlns="http://www.w3.org/2000/svg">
<circle cx="91" cy="50" r="50" fill="#FB7F0D"/>
<path d="M45.8548 23.44C44.9588 23.9253 43.6521 24.168 41.9348 24.168C41.3934 24.168 40.8708 24.1307 40.3668 24.056C40.3668 23.0667 40.8801 20.472 41.9068 16.272C42.9521 12.072 43.4748 9.244 43.4748 7.788C43.4748 7.41467 43.3814 7.02267 43.1948 6.612C43.0081 6.18267 42.8214 5.856 42.6348 5.632L42.3268 5.268L42.4388 4.708C43.7641 4.316 45.8454 4.12 48.6828 4.12C48.9441 4.64267 49.0748 5.30533 49.0748 6.108C49.0748 6.91067 48.6828 9.132 47.8988 12.772H48.0668C49.4108 12.772 50.4188 12.1653 51.0908 10.952C51.7814 9.72 52.3134 7.69467 52.6868 4.876C54.3481 4.372 55.9908 4.12 57.6148 4.12C57.6521 4.26933 57.6614 4.68 57.6428 5.352C57.6241 6.00533 57.4468 6.88267 57.1108 7.984C56.7934 9.08533 56.2148 10.224 55.3748 11.4C54.5348 12.5573 53.5081 13.444 52.2948 14.06C53.7134 18.9507 54.8148 21.396 55.5988 21.396C55.8974 21.396 56.3734 21.284 57.0268 21.06L57.3348 20.948L58.0068 22.488C56.2708 23.72 54.5161 24.336 52.7428 24.336C50.9694 24.336 49.8028 23.4213 49.2428 21.592C48.6828 19.7253 48.2628 17.532 47.9828 15.012H47.3948C46.3681 19.5667 45.8548 22.376 45.8548 23.44ZM71.9884 12.66C71.5964 13.8733 71.2604 15.32 70.9804 17C70.7004 18.6613 70.5604 19.828 70.5604 20.5C70.5604 21.1533 70.663 21.48 70.8684 21.48L72.2684 21.088L72.7724 22.488C72.175 22.9547 71.4097 23.384 70.4764 23.776C69.5617 24.1493 68.7497 24.336 68.0404 24.336C66.827 24.336 66.0617 23.8133 65.7444 22.768C64.2697 23.8133 62.963 24.336 61.8244 24.336C60.7044 24.336 59.8364 23.9253 59.2204 23.104C58.6044 22.2827 58.2964 21.1067 58.2964 19.576C58.2964 17.4667 58.8377 15.6093 59.9204 14.004C61.003 12.3987 62.431 11.596 64.2044 11.596C65.175 11.596 66.1644 11.8667 67.1724 12.408C67.3217 12.072 67.443 11.8293 67.5364 11.68C68.8804 11.68 70.3644 12.0067 71.9884 12.66ZM63.5604 19.24C63.5604 20.1733 63.6257 20.7613 63.7564 21.004C63.887 21.2467 64.1297 21.368 64.4844 21.368C64.839 21.368 65.1844 21.228 65.5204 20.948C65.595 18.7827 65.9497 16.5147 66.5844 14.144C66.3044 13.976 65.9777 13.892 65.6044 13.892C65.2497 13.892 64.923 14.0973 64.6244 14.508C64.3444 14.9187 64.1297 15.432 63.9804 16.048C63.7004 17.224 63.5604 18.288 63.5604 19.24ZM72.3034 30.272C72.154 30.0293 72.0794 29.516 72.0794 28.732C72.0794 27.948 72.434 25.82 73.1434 22.348C73.8714 18.876 74.2354 16.7013 74.2354 15.824C74.2354 14.9467 74.1514 14.284 73.9834 13.836C73.8154 13.3693 73.6474 13.0707 73.4794 12.94L73.2274 12.744L73.2834 12.324C74.4034 11.9693 76.298 11.792 78.9674 11.792C79.1167 12.072 79.238 12.436 79.3314 12.884C80.526 12.0253 81.6554 11.596 82.7194 11.596C83.7834 11.596 84.6514 12.0067 85.3234 12.828C86.014 13.6307 86.3594 15.0027 86.3594 16.944C86.3594 18.8853 85.846 20.6027 84.8194 22.096C83.8114 23.5893 82.3274 24.336 80.3674 24.336C79.5087 24.336 78.6687 24.168 77.8474 23.832C77.418 25.9413 77.2034 27.7987 77.2034 29.404C75.8594 29.8893 74.226 30.1787 72.3034 30.272ZM79.0794 21.984C79.5834 21.984 80.0127 21.6107 80.3674 20.864C81.002 19.5573 81.3194 17.9707 81.3194 16.104C81.3194 15.0027 81.0487 14.452 80.5074 14.452C80.2274 14.452 79.854 14.5547 79.3874 14.76C79.2754 16.328 78.902 18.6893 78.2674 21.844C78.5847 21.9373 78.8554 21.984 79.0794 21.984ZM96.7115 14.088L94.2475 13.892C94.0795 17.0467 93.7062 20.0613 93.1275 22.936C92.5675 25.8107 92.0075 27.612 91.4475 28.34C90.5142 28.3213 89.6088 28.2093 88.7315 28.004C87.8542 27.8173 87.2568 27.6307 86.9395 27.444C87.6488 25.0547 88.1528 22.992 88.4515 21.256C88.7502 19.5013 89.0488 17.084 89.3475 14.004L87.4995 14.2C87.4248 13.8453 87.3875 13.4907 87.3875 13.136C87.3875 12.7627 87.4342 12.3613 87.5275 11.932H89.5435C89.8235 9.15067 90.2155 7.27467 90.7195 6.304C91.3728 5.016 92.1568 4.19467 93.0715 3.84C93.6315 3.59733 94.3408 3.476 95.1995 3.476C96.0582 3.476 96.7768 3.728 97.3555 4.232C97.9528 4.71733 98.2515 5.38 98.2515 6.22C98.2515 7.04133 97.8688 7.99333 97.1035 9.076C96.3382 10.1587 95.4142 11.1107 94.3315 11.932H97.1595C97.1595 12.772 97.0102 13.4907 96.7115 14.088ZM95.8995 5.576C95.1155 5.576 94.6208 6.948 94.4155 9.692C95.0688 9.16933 95.5915 8.6 95.9835 7.984C96.3942 7.34933 96.5995 6.78933 96.5995 6.304C96.5995 5.81867 96.3662 5.576 95.8995 5.576ZM110.324 12.66C109.932 13.8733 109.596 15.32 109.316 17C109.036 18.6613 108.896 19.828 108.896 20.5C108.896 21.1533 108.999 21.48 109.204 21.48L110.604 21.088L111.108 22.488C110.511 22.9547 109.746 23.384 108.812 23.776C107.898 24.1493 107.086 24.336 106.376 24.336C105.163 24.336 104.398 23.8133 104.08 22.768C102.606 23.8133 101.299 24.336 100.16 24.336C99.0403 24.336 98.1723 23.9253 97.5563 23.104C96.9403 22.2827 96.6323 21.1067 96.6323 19.576C96.6323 17.4667 97.1736 15.6093 98.2563 14.004C99.339 12.3987 100.767 11.596 102.54 11.596C103.511 11.596 104.5 11.8667 105.508 12.408C105.658 12.072 105.779 11.8293 105.872 11.68C107.216 11.68 108.7 12.0067 110.324 12.66ZM101.896 19.24C101.896 20.1733 101.962 20.7613 102.092 21.004C102.223 21.2467 102.466 21.368 102.82 21.368C103.175 21.368 103.52 21.228 103.856 20.948C103.931 18.7827 104.286 16.5147 104.92 14.144C104.64 13.976 104.314 13.892 103.94 13.892C103.586 13.892 103.259 14.0973 102.96 14.508C102.68 14.9187 102.466 15.432 102.316 16.048C102.036 17.224 101.896 18.288 101.896 19.24ZM112.067 24.168H111.843C111.787 23.9067 111.759 23.5053 111.759 22.964C111.759 22.404 111.983 20.976 112.431 18.68C112.898 16.3653 113.131 15.0587 113.131 14.76C113.131 14.4427 113.047 14.1253 112.879 13.808C112.711 13.472 112.543 13.22 112.375 13.052L112.123 12.8L112.179 12.38C113.299 12.0253 115.157 11.848 117.751 11.848C117.994 12.3147 118.143 12.8653 118.199 13.5C119.338 12.2307 120.346 11.596 121.223 11.596C122.362 11.596 122.987 12.5573 123.099 14.48C123.062 14.5173 123.015 14.5827 122.959 14.676C122.903 14.7507 122.773 14.8907 122.567 15.096C122.362 15.3013 122.147 15.488 121.923 15.656C121.289 16.0853 120.617 16.3373 119.907 16.412C119.889 16.412 119.758 16.2067 119.515 15.796C119.291 15.3853 119.095 15.18 118.927 15.18C118.778 15.18 118.489 15.348 118.059 15.684C118.003 16.02 117.891 16.5893 117.723 17.392C117.574 18.1947 117.453 18.8573 117.359 19.38C117.079 20.7613 116.939 21.9187 116.939 22.852L116.967 23.692C116.146 24.0093 114.513 24.168 112.067 24.168ZM123.34 24.168H122.64C122.64 22.8427 122.892 20.9947 123.396 18.624C123.919 16.2347 124.18 14.9093 124.18 14.648C124.18 14.3867 124.096 14.0973 123.928 13.78C123.76 13.4627 123.592 13.22 123.424 13.052L123.172 12.8L123.228 12.38C124.311 12.0253 126.224 11.848 128.968 11.848C129.173 12.2773 129.313 12.7347 129.388 13.22C131.012 12.156 132.384 11.624 133.504 11.624C134.101 11.624 134.605 11.7827 135.016 12.1C135.445 12.4173 135.744 12.8373 135.912 13.36C137.461 12.2027 138.88 11.624 140.168 11.624C141.008 11.624 141.661 11.8853 142.128 12.408C142.613 12.912 142.856 13.528 142.856 14.256C142.856 14.9653 142.651 16.1227 142.24 17.728C141.829 19.3333 141.624 20.3693 141.624 20.836C141.624 21.284 141.699 21.508 141.848 21.508L143.304 21.144L143.808 22.544C143.248 22.992 142.473 23.4027 141.484 23.776C140.513 24.1493 139.636 24.336 138.852 24.336C137.247 24.336 136.444 23.524 136.444 21.9C136.444 21.2093 136.64 20.0333 137.032 18.372C137.424 16.7107 137.62 15.7027 137.62 15.348C137.62 14.9747 137.48 14.788 137.2 14.788C136.808 14.788 136.388 14.9467 135.94 15.264C135.884 15.544 135.735 16.216 135.492 17.28C134.969 19.6693 134.708 21.788 134.708 23.636C133.849 23.9533 132.179 24.112 129.696 24.112C129.64 23.9067 129.612 23.4213 129.612 22.656C129.612 21.8907 129.817 20.5373 130.228 18.596C130.639 16.6547 130.844 15.5347 130.844 15.236C130.844 14.9373 130.713 14.788 130.452 14.788C130.135 14.788 129.724 14.9373 129.22 15.236C129.164 15.5533 128.987 16.3653 128.688 17.672C128.053 20.416 127.736 22.4133 127.736 23.664C126.859 24 125.393 24.168 123.34 24.168ZM29.4688 63C25.8229 63 24 61.1771 24 57.5312V44.875C24 41.2292 25.8229 39.4062 29.4688 39.4062H34.3125C37.9583 39.4062 39.7812 41.2292 39.7812 44.875V46.5938L36.8125 48H36.6562V44.875C36.6562 43.1042 35.875 42.2188 34.3125 42.2188H29.4688C27.9062 42.2188 27.125 43.1042 27.125 44.875V57.5312C27.125 59.3021 27.9062 60.1875 29.4688 60.1875H34.3125C35.875 60.1875 36.6562 59.3021 36.6562 57.5312V52.625H31.2188V52.4688L32.4844 49.7812H39.7812V57.5312C39.7812 61.1771 37.9583 63 34.3125 63H29.4688ZM45.25 63.625V50.5C45.25 47.375 46.8125 45.8125 49.9375 45.8125H53.8438V45.9688L52.5938 48.625H49.9375C48.8958 48.625 48.375 49.25 48.375 50.5V62.2188L45.4062 63.625H45.25ZM61.1875 60.1875H64.7812C65.8229 60.1875 66.3438 59.5625 66.3438 58.3125V50.5C66.3438 49.25 65.8229 48.625 64.7812 48.625H61.1875C60.1458 48.625 59.625 49.25 59.625 50.5V58.3125C59.625 59.5625 60.1458 60.1875 61.1875 60.1875ZM61.1875 63C58.0625 63 56.5 61.4375 56.5 58.3125V50.5C56.5 47.375 58.0625 45.8125 61.1875 45.8125H64.7812C67.9062 45.8125 69.4688 47.375 69.4688 50.5V58.3125C69.4688 61.4375 67.9062 63 64.7812 63H61.1875ZM78.8438 63C75.7188 63 74.1562 61.4375 74.1562 58.3125V50.5C74.1562 47.375 75.7188 45.8125 78.8438 45.8125H82.4375C85.5625 45.8125 87.125 47.375 87.125 50.5V51.3281L84.1562 52.7344H84V50.5C84 49.25 83.4792 48.625 82.4375 48.625H78.8438C77.8021 48.625 77.2812 49.25 77.2812 50.5V58.3125C77.2812 59.5625 77.8021 60.1875 78.8438 60.1875H82.4375C83.4792 60.1875 84 59.5625 84 58.3125V57.4844L86.9688 56.0781H87.125V58.3125C87.125 61.4375 85.5625 63 82.4375 63H78.8438ZM96.5 63C93.375 63 91.8125 61.4375 91.8125 58.3125V50.5C91.8125 47.375 93.375 45.8125 96.5 45.8125H100.094C103.219 45.8125 104.781 47.375 104.781 50.5V51.3281L94.9844 58.9062C95.1302 59.7604 95.6354 60.1875 96.5 60.1875H100.094C101.135 60.1875 101.656 59.5625 101.656 58.3125V57.4844L104.625 56.0781H104.781V58.3125C104.781 61.4375 103.219 63 100.094 63H96.5ZM94.9375 55.6406L101.641 50.2344C101.578 49.1615 101.062 48.625 100.094 48.625H96.5C95.4583 48.625 94.9375 49.25 94.9375 50.5V55.6406ZM109.469 63.625V50.5C109.469 47.375 111.031 45.8125 114.156 45.8125H118.062V45.9688L116.812 48.625H114.156C113.115 48.625 112.594 49.25 112.594 50.5V62.2188L109.625 63.625H109.469ZM121.734 42.3594C121.37 41.9844 121.188 41.5365 121.188 41.0156C121.188 40.4844 121.37 40.0312 121.734 39.6562C122.099 39.2812 122.542 39.0938 123.062 39.0938C123.583 39.0938 124.026 39.2812 124.391 39.6562C124.755 40.0312 124.938 40.4844 124.938 41.0156C124.938 41.5365 124.755 41.9844 124.391 42.3594C124.026 42.7344 123.583 42.9219 123.062 42.9219C122.542 42.9219 122.099 42.7344 121.734 42.3594ZM121.5 63.625V46.5938L124.469 45.1875H124.625V62.2188L121.656 63.625H121.5ZM134.781 63C131.656 63 130.094 61.4375 130.094 58.3125V50.5C130.094 47.375 131.656 45.8125 134.781 45.8125H138.375C141.5 45.8125 143.062 47.375 143.062 50.5V51.3281L133.266 58.9062C133.411 59.7604 133.917 60.1875 134.781 60.1875H138.375C139.417 60.1875 139.938 59.5625 139.938 58.3125V57.4844L142.906 56.0781H143.062V58.3125C143.062 61.4375 141.5 63 138.375 63H134.781ZM133.219 55.6406L139.922 50.2344C139.859 49.1615 139.344 48.625 138.375 48.625H134.781C133.74 48.625 133.219 49.25 133.219 50.5V55.6406ZM151.969 63C148.844 63 147.281 61.4375 147.281 58.3125V57.75L150.25 56.3438H150.406V58.3125C150.406 59.5625 150.927 60.1875 151.969 60.1875H155.562C156.604 60.1875 157.125 59.5625 157.125 58.3125V57.0781C157.125 55.8281 156.604 55.2031 155.562 55.2031H152.625C149.5 55.2031 147.938 53.6354 147.938 50.5C147.938 47.375 149.5 45.8125 152.625 45.8125H154.453C157.578 45.8125 159.141 47.0729 159.141 49.5938L156.172 51H156.016V50.5C156.016 49.25 155.495 48.625 154.453 48.625H152.625C151.583 48.625 151.062 49.25 151.062 50.5C151.062 51.7604 151.583 52.3906 152.625 52.3906H155.562C158.688 52.3906 160.25 53.9531 160.25 57.0781V58.3125C160.25 61.4375 158.688 63 155.562 63H151.969ZM46.2188 97V77.0391L48.8164 75.8086H48.9531V95.4961H58.3184V95.6328L57.6758 97H46.2188ZM59.959 78.9395C59.64 78.6113 59.4805 78.2194 59.4805 77.7637C59.4805 77.2988 59.64 76.9023 59.959 76.5742C60.278 76.2461 60.6654 76.082 61.1211 76.082C61.5768 76.082 61.9642 76.2461 62.2832 76.5742C62.6022 76.9023 62.7617 77.2988 62.7617 77.7637C62.7617 78.2194 62.6022 78.6113 62.2832 78.9395C61.9642 79.2676 61.5768 79.4316 61.1211 79.4316C60.6654 79.4316 60.278 79.2676 59.959 78.9395ZM59.7539 97.5469V82.6445L62.3516 81.4141H62.4883V96.3164L59.8906 97.5469H59.7539ZM67.2734 97.5469V87.1562C67.2734 85.6523 67.8385 84.3444 68.9688 83.2324C70.026 82.2025 71.3522 81.6875 72.9473 81.6875C74.3965 81.6875 75.6497 82.2161 76.707 83.2734C76.9076 83.474 77.0898 83.7109 77.2539 83.9844C77.418 83.7201 77.6003 83.4876 77.8008 83.2871C78.9401 82.2207 80.1934 81.6875 81.5605 81.6875C83.1374 81.6875 84.4635 82.2025 85.5391 83.2324C86.6693 84.3262 87.2344 85.6341 87.2344 87.1562V96.3164L84.6367 97.5469H84.5V86.2266C84.5 85.1784 84.2129 84.4128 83.6387 83.9297C83.0736 83.4375 82.3809 83.1914 81.5605 83.1914C80.7402 83.1914 80.043 83.4375 79.4688 83.9297C78.9036 84.4128 78.6211 85.1784 78.6211 86.2266V96.3164L76.0234 97.5469H75.8867V86.2266C75.8867 85.1784 75.5996 84.4128 75.0254 83.9297C74.4603 83.4375 73.7676 83.1914 72.9473 83.1914C72.127 83.1914 71.4297 83.4375 70.8555 83.9297C70.2904 84.4128 70.0078 85.1784 70.0078 86.2266V96.3164L67.4102 97.5469H67.2734ZM92.2246 78.9395C91.9056 78.6113 91.7461 78.2194 91.7461 77.7637C91.7461 77.2988 91.9056 76.9023 92.2246 76.5742C92.5436 76.2461 92.931 76.082 93.3867 76.082C93.8424 76.082 94.2298 76.2461 94.5488 76.5742C94.8678 76.9023 95.0273 77.2988 95.0273 77.7637C95.0273 78.2194 94.8678 78.6113 94.5488 78.9395C94.2298 79.2676 93.8424 79.4316 93.3867 79.4316C92.931 79.4316 92.5436 79.2676 92.2246 78.9395ZM92.0195 97.5469V82.6445L94.6172 81.4141H94.7539V96.3164L92.1562 97.5469H92.0195ZM101.344 97.5469V83.4648H97.8301V83.3281L98.4727 81.9609H101.344V77.0391L103.941 75.8086H104.078V81.9609H107.592V82.0977L106.949 83.4648H104.078V96.3164L101.48 97.5469H101.344ZM121.332 90.9434V91.8047C121.332 93.3086 120.767 94.6165 119.637 95.7285C118.579 96.7585 117.253 97.2734 115.658 97.2734C114.081 97.2734 112.755 96.7585 111.68 95.7285C110.549 94.6348 109.984 93.3268 109.984 91.8047V87.1562C109.984 85.6432 110.549 84.3353 111.68 83.2324C112.737 82.2025 114.063 81.6875 115.658 81.6875C117.217 81.6875 118.543 82.2025 119.637 83.2324C120.767 84.2988 121.332 85.4746 121.332 86.7598L112.801 93.6504C112.928 94.2428 113.184 94.7031 113.566 95.0312C114.141 95.5234 114.838 95.7695 115.658 95.7695C116.479 95.7695 117.171 95.5234 117.736 95.0312C118.311 94.5391 118.598 93.5866 118.598 92.1738L121.195 90.9434H121.332ZM112.719 91.5449L118.598 86.7734V86.2266C118.598 85.1875 118.315 84.4219 117.75 83.9297C117.176 83.4375 116.479 83.1914 115.658 83.1914C114.847 83.1914 114.15 83.4375 113.566 83.9297C113.001 84.4036 112.719 85.1693 112.719 86.2266V91.5449ZM128.168 92.7344C128.168 93.7826 128.451 94.5527 129.016 95.0449C129.59 95.528 130.287 95.7695 131.107 95.7695C131.928 95.7695 132.62 95.528 133.186 95.0449C133.76 94.5527 134.047 93.7826 134.047 92.7344V86.2266C134.047 85.1784 133.76 84.4128 133.186 83.9297C132.62 83.4375 131.928 83.1914 131.107 83.1914C130.287 83.1914 129.59 83.4375 129.016 83.9297C128.451 84.4128 128.168 85.1784 128.168 86.2266V92.7344ZM125.434 91.8047V87.1562C125.434 85.6523 125.999 84.3444 127.129 83.2324C128.186 82.2025 129.512 81.6875 131.107 81.6875C132.311 81.6875 133.29 82.0749 134.047 82.8496V77.0391L136.645 75.8086H136.781V91.8047C136.781 93.3086 136.216 94.6165 135.086 95.7285C134.029 96.7585 132.702 97.2734 131.107 97.2734C129.531 97.2734 128.204 96.7585 127.129 95.7285C125.999 94.6348 125.434 93.3268 125.434 91.8047Z" fill="white"/>
</svg>
